<?xml version="1.0" standalone="no"?>
<!DOCTYPE svg PUBLIC "-//W3C//DTD SVG 20010904//EN"
 "http://www.w3.org/TR/2001/REC-SVG-20010904/DTD/svg10.dtd">
<svg version="1.0" xmlns="http://www.w3.org/2000/svg"
 width="300.000000pt" height="300.000000pt" viewBox="0 0 300.000000 300.000000"
 preserveAspectRatio="xMidYMid meet">
<metadata>
Created by potrace 1.10, written by Peter Selinger 2001-2011
</metadata>
<g transform="translate(0.000000,300.000000) scale(0.100000,-0.100000)"
fill="#000000" stroke="none">
<path d="M1195 2965 c-300 -64 -532 -190 -750 -409 -162 -163 -252 -297 -335
-501 -52 -128 -102 -339 -99 -420 1 -16 9 15 19 70 36 206 80 339 160 488 172
320 446 562 795 698 60 23 176 53 255 64 19 3 64 12 100 19 l65 14 -50 0 c-27
0 -99 -10 -160 -23z"/>
<path d="M1675 2973 c216 -38 368 -86 510 -160 76 -39 158 -92 163 -105 2 -4
9 -8 15 -8 30 -1 317 -280 317 -309 0 -5 4 -11 8 -13 14 -5 97 -139 142 -228
61 -122 108 -265 125 -380 3 -25 12 -76 19 -115 13 -68 14 -69 15 -23 1 61
-33 236 -65 335 -14 43 -52 132 -85 198 -204 415 -586 709 -1034 800 -67 14
-142 24 -166 24 -38 -1 -32 -4 36 -16z"/>
<path d="M1318 2861 c-42 -10 -82 -22 -90 -27 -7 -6 -29 -17 -48 -24 -19 -7
-57 -29 -85 -48 -50 -36 -155 -139 -147 -146 2 -2 -4 -18 -12 -35 -9 -16 -16
-43 -16 -58 1 -23 6 -16 29 35 15 34 31 59 35 55 4 -4 9 3 13 15 4 17 9 20 18
12 11 -9 12 -7 8 9 -6 22 24 54 61 67 11 4 27 15 35 25 23 26 133 81 153 76 9
-3 18 -1 20 4 2 5 34 10 71 12 37 1 63 3 57 5 -5 2 -10 8 -10 13 0 4 27 7 59
6 32 -1 55 -5 49 -8 -5 -3 0 -9 11 -12 12 -3 21 -1 21 5 0 6 10 3 23 -5 49
-35 103 -60 130 -59 15 0 27 -3 27 -8 0 -4 10 -10 23 -13 21 -6 21 -6 -3 13
-14 10 -44 24 -67 29 -49 13 -64 28 -25 26 45 -3 144 -62 211 -125 33 -33 60
-63 59 -68 -4 -13 89 -130 114 -143 15 -8 17 -14 9 -22 -6 -6 -11 -22 -11 -35
0 -13 -4 -20 -10 -17 -5 3 -10 1 -10 -5 0 -7 8 -9 20 -5 18 6 19 4 10 -19 -5
-14 -6 -25 -2 -25 18 3 35 -2 29 -8 -4 -3 0 -17 9 -31 13 -20 14 -26 3 -33
-12 -7 -12 -9 -1 -9 8 0 12 -6 9 -12 -2 -7 -14 -12 -25 -10 -16 2 -22 -2 -21
-15 0 -10 3 -13 6 -5 8 20 26 13 20 -9 -4 -16 -3 -18 8 -9 10 8 14 4 18 -17 3
-15 1 -36 -4 -46 -6 -9 -6 -24 -1 -32 4 -9 5 -46 1 -83 -4 -37 -5 -107 -2
-157 6 -87 7 -89 20 -57 7 17 18 32 23 32 21 0 22 -30 2 -62 -16 -27 -18 -43
-13 -85 6 -46 5 -51 -7 -40 -13 10 -14 8 -8 -18 4 -16 6 -34 5 -40 -1 -5 -3
-82 -5 -170 -2 -112 1 -164 9 -174 8 -10 8 -13 1 -8 -7 4 -17 0 -24 -8 -11
-13 -10 -14 6 -9 16 6 17 5 7 -7 -18 -18 -16 -39 5 -56 16 -13 15 -14 -6 -8
-21 6 -23 5 -13 -13 9 -17 7 -24 -11 -38 -19 -13 -19 -15 -4 -10 24 8 36 -9
36 -52 0 -23 -4 -31 -12 -26 -7 5 -8 3 -3 -6 4 -7 3 -15 -3 -19 -8 -5 -7 -15
3 -34 14 -28 13 -31 -18 -27 -15 1 -17 -3 -12 -19 7 -23 -4 -28 -24 -8 -10 10
-11 6 -6 -20 3 -21 1 -33 -6 -33 -6 0 -8 -9 -3 -22 6 -20 5 -21 -10 -9 -24 20
-30 8 -7 -13 16 -14 18 -23 10 -49 -9 -32 -6 -43 9 -33 5 3 8 15 7 28 -1 13 2
26 7 29 5 3 11 15 12 25 2 10 11 18 20 18 9 -1 16 4 16 12 0 8 7 14 15 14 8 0
15 5 15 10 0 13 -17 13 -25 0 -10 -17 -25 -11 -25 9 0 10 12 26 26 36 16 11
23 22 20 32 -4 10 3 26 16 40 17 18 18 23 5 17 -20 -7 -21 -3 -5 31 8 19 9 28
0 37 -8 8 -8 17 -1 30 7 13 6 18 -3 18 -10 0 -10 2 -1 8 14 9 12 178 -4 332
-6 62 -5 101 5 145 18 81 34 224 28 241 -3 8 -15 14 -26 14 -20 0 -21 3 -13
128 4 70 8 161 7 202 0 77 -28 193 -50 211 -7 6 -10 25 -7 47 4 31 1 39 -18
47 -13 6 -49 48 -81 95 -33 47 -75 102 -94 122 -43 46 -186 128 -223 128 -16
0 -50 7 -77 15 -63 19 -168 17 -266 -4z m744 -2003 c-7 -7 -12 -8 -12 -2 0 14
12 26 19 19 2 -3 -1 -11 -7 -17z"/>
<path d="M1450 2821 c8 -5 35 -12 60 -16 25 -4 53 -11 63 -17 10 -5 17 -5 17
0 0 10 -76 34 -125 38 -21 3 -25 1 -15 -5z"/>
<path d="M1320 2810 c0 -8 88 -26 165 -34 l50 -5 -55 14 c-77 21 -160 33 -160
25z"/>
<path d="M1250 2779 c30 -5 78 -11 105 -14 28 -3 63 -10 79 -15 16 -6 31 -8
33 -6 13 13 -168 47 -237 44 -28 -1 -23 -3 20 -9z"/>
<path d="M1600 2786 c0 -2 7 -7 16 -10 8 -3 12 -2 9 4 -6 10 -25 14 -25 6z"/>
<path d="M1588 2743 c6 -2 18 -2 25 0 6 3 1 5 -13 5 -14 0 -19 -2 -12 -5z"/>
<path d="M1380 2725 c47 -18 74 -18 31 0 -18 8 -41 15 -50 14 -9 0 0 -7 19
-14z"/>
<path d="M1480 2732 c0 -7 28 -26 95 -67 l30 -18 -30 26 c-37 33 -95 69 -95
59z"/>
<path d="M1790 2726 c0 -9 5 -16 10 -16 6 0 10 4 10 9 0 6 -4 13 -10 16 -5 3
-10 -1 -10 -9z"/>
<path d="M1338 2694 c29 -14 56 -23 59 -20 6 6 -45 29 -87 40 -14 3 -1 -6 28
-20z"/>
<path d="M1724 2695 c36 -19 45 -19 20 0 -10 8 -26 14 -34 15 -8 0 -2 -7 14
-15z"/>
<path d="M1245 2690 c17 -4 39 -8 50 -8 16 0 15 2 -5 8 -14 4 -36 8 -50 8 -22
0 -22 -1 5 -8z"/>
<path d="M1780 2694 c0 -6 65 -34 77 -34 9 1 -58 39 -69 40 -5 0 -8 -2 -8 -6z"/>
<path d="M1430 2680 c0 -5 7 -10 16 -10 8 0 12 5 9 10 -3 6 -10 10 -16 10 -5
0 -9 -4 -9 -10z"/>
<path d="M1640 2686 c0 -2 8 -10 18 -17 15 -13 16 -12 3 4 -13 16 -21 21 -21
13z"/>
<path d="M1707 2669 c12 -12 24 -21 27 -18 2 2 -8 13 -22 23 l-27 19 22 -24z"/>
<path d="M1190 2661 c0 -4 -11 -6 -25 -3 -14 2 -25 0 -25 -6 0 -5 -6 -10 -12
-9 -7 0 -22 -1 -33 -2 -18 -1 -19 -2 -3 -12 12 -7 31 -6 60 2 24 6 52 13 63
15 11 3 36 8 55 13 33 8 31 9 -22 10 -32 1 -58 -3 -58 -8z"/>
<path d="M1430 2640 c8 -5 22 -9 30 -9 10 0 8 3 -5 9 -27 12 -43 12 -25 0z"/>
<path d="M1778 2643 c12 -2 30 -2 40 0 9 3 -1 5 -23 4 -22 0 -30 -2 -17 -4z"/>
<path d="M1510 2626 c0 -8 7 -16 15 -20 17 -6 18 -4 9 18 -8 20 -24 21 -24 2z"/>
<path d="M1280 2620 c0 -11 48 -25 56 -17 3 2 -9 9 -25 15 -18 7 -31 7 -31 2z"/>
<path d="M1380 2621 c0 -5 9 -7 20 -4 11 3 20 7 20 9 0 2 -9 4 -20 4 -11 0
-20 -4 -20 -9z"/>
<path d="M1024 2605 c-18 -13 -18 -14 4 -8 12 3 25 9 28 14 8 14 -10 11 -32
-6z"/>
<path d="M1808 2609 c29 -5 62 -14 72 -19 24 -13 30 -13 30 0 0 6 -3 9 -7 8
-5 -1 -21 4 -36 10 -16 7 -47 11 -70 11 l-42 -1 53 -9z"/>
<path d="M1200 2600 c-8 -5 -10 -10 -5 -10 6 0 17 5 25 10 8 5 11 10 5 10 -5
0 -17 -5 -25 -10z"/>
<path d="M1405 2600 c-3 -5 -1 -10 4 -10 6 0 11 5 11 10 0 6 -2 10 -4 10 -3 0
-8 -4 -11 -10z"/>
<path d="M1075 2584 c-43 -22 -56 -38 -25 -29 14 3 34 10 45 15 11 5 36 14 55
19 l35 9 -40 1 c-22 0 -53 -6 -70 -15z"/>
<path d="M1545 2578 c-45 -13 -102 -20 -160 -21 l-90 0 50 -11 c38 -9 68 -9
125 0 99 17 211 41 218 48 12 13 -77 2 -143 -16z"/>
<path d="M1285 2583 c-11 -2 -29 -6 -41 -8 -22 -5 -82 -55 -65 -55 20 0 41 12
35 21 -3 5 4 9 15 9 12 0 21 5 21 10 0 6 14 10 30 10 17 0 30 5 30 10 0 6 -1
9 -2 9 -2 -1 -12 -3 -23 -6z"/>
<path d="M1360 2580 c0 -5 5 -10 10 -10 6 0 10 5 10 10 0 6 -4 10 -10 10 -5 0
-10 -4 -10 -10z"/>
<path d="M1005 2571 c-11 -5 -26 -6 -33 -4 -8 3 -10 0 -6 -10 3 -8 1 -18 -5
-22 -6 -3 -11 -19 -11 -34 0 -15 -4 -31 -9 -36 -13 -15 -62 -145 -67 -179 -14
-95 -15 -202 -1 -302 8 -60 15 -116 16 -124 0 -8 7 -37 15 -65 l15 -50 0 90
c1 98 17 213 31 231 6 6 7 13 4 16 -8 9 -10 88 -2 100 3 7 4 16 1 21 -8 13
-53 -54 -53 -80 0 -16 6 -23 19 -23 14 0 18 -5 14 -20 -3 -11 -9 -20 -14 -20
-5 0 -9 -17 -9 -37 0 -21 -5 -45 -11 -53 -9 -13 -10 -13 -8 0 2 8 -1 48 -5 88
-7 58 -5 79 8 106 9 19 13 41 10 50 -3 9 -1 23 6 31 8 10 9 15 2 15 -6 0 -16
-8 -21 -17 -6 -10 -11 -14 -11 -9 0 5 9 24 21 43 12 19 19 43 16 54 -8 28 2
49 22 50 9 0 11 3 4 5 -15 7 17 84 35 84 8 0 10 -5 6 -12 -14 -24 5 -2 31 36
l26 38 -28 -19 c-53 -37 -56 -37 -37 -2 10 19 17 37 16 42 -1 4 4 7 12 7 8 0
18 5 21 10 7 11 7 11 -20 1z"/>
<path d="M1838 2568 c5 -5 16 -8 23 -6 8 3 3 7 -10 11 -17 4 -21 3 -13 -5z"/>
<path d="M1710 2556 c0 -9 8 -16 19 -16 10 0 23 -6 29 -12 11 -14 67 -16 80
-4 4 4 3 7 -3 5 -19 -4 -70 14 -82 30 -10 12 -12 13 -13 2 0 -11 -3 -11 -15
-1 -12 10 -15 10 -15 -4z"/>
<path d="M1930 2550 c6 -11 12 -20 14 -20 2 0 2 9 -1 20 -3 11 -9 20 -15 20
-5 0 -4 -9 2 -20z"/>
<path d="M860 2549 c0 -5 5 -7 10 -4 6 3 10 8 10 11 0 2 -4 4 -10 4 -5 0 -10
-5 -10 -11z"/>
<path d="M1108 2539 c-21 -11 -38 -24 -38 -30 0 -6 -6 -9 -14 -6 -8 3 -17 -1
-20 -9 -4 -12 -1 -14 14 -9 11 4 20 2 20 -4 0 -6 -4 -11 -10 -11 -5 0 -19 -8
-29 -17 -11 -10 -30 -26 -44 -35 -15 -11 -27 -31 -32 -55 -4 -21 -11 -44 -17
-50 -6 -7 -8 -26 -6 -43 3 -18 0 -31 -9 -34 -7 -3 -13 -10 -13 -16 0 -6 11 -3
24 7 17 12 24 27 23 48 -1 33 37 115 59 128 30 17 113 100 109 108 -3 4 3 10
14 14 11 3 25 12 31 20 18 22 -16 19 -62 -6z"/>
<path d="M1345 2520 c-16 -7 -17 -9 -3 -9 9 -1 20 4 23 9 7 11 7 11 -20 0z"/>
<path d="M885 2500 c-10 -11 -16 -22 -13 -25 3 -3 13 6 22 20 20 30 16 32 -9
5z"/>
<path d="M1981 2504 c0 -11 3 -14 6 -6 3 7 2 16 -1 19 -3 4 -6 -2 -5 -13z"/>
<path d="M1274 2495 c-17 -13 -16 -14 14 -4 33 11 41 19 19 19 -7 0 -22 -7
-33 -15z"/>
<path d="M1885 2500 c-18 -7 -18 -9 8 -19 16 -6 33 -11 39 -11 6 0 8 -8 5 -19
-6 -23 10 -51 28 -51 8 0 15 -7 15 -15 0 -8 5 -15 10 -15 6 0 10 -7 10 -16 0
-9 6 -14 12 -12 20 7 34 -14 30 -44 -2 -15 0 -28 5 -28 18 0 23 13 10 28 -10
13 -9 15 5 9 16 -5 16 -4 5 15 -21 35 -61 78 -73 78 -6 0 -17 7 -24 15 -9 11
-9 15 -1 15 7 0 9 5 6 10 -4 6 -11 7 -17 4 -6 -4 -9 -3 -5 2 13 22 -41 64 -68
54z"/>
<path d="M2015 2481 c3 -5 -1 -12 -7 -14 -8 -4 -7 -6 4 -6 23 -1 32 15 12 23
-8 3 -13 2 -9 -3z"/>
<path d="M2060 2112 c6 -13 14 -21 18 -18 3 4 -2 14 -12 24 -18 16 -18 16 -6
-6z"/>
<path d="M1235 2100 c-3 -6 1 -7 9 -4 18 7 21 14 7 14 -6 0 -13 -4 -16 -10z"/>
<path d="M1280 2106 c0 -2 7 -7 16 -10 8 -3 12 -2 9 4 -6 10 -25 14 -25 6z"/>
<path d="M1023 1986 c-43 -48 -63 -113 -43 -144 10 -15 11 -14 7 6 -3 12 -1
22 4 22 10 0 25 48 21 68 -2 6 1 12 6 12 4 0 14 -6 21 -12 9 -9 12 -9 7 -1 -3
6 0 14 6 16 10 4 9 6 -1 6 -11 1 -11 4 -1 16 7 8 16 12 22 9 5 -3 16 0 24 7 8
6 17 9 21 5 3 -3 1 -6 -5 -6 -7 0 -12 -7 -12 -15 0 -8 7 -15 15 -15 8 0 15 4
15 10 0 6 9 6 25 0 14 -5 32 -7 42 -3 12 5 14 3 8 -8 -8 -12 -6 -12 8 -1 9 8
21 11 27 7 5 -3 13 1 16 9 5 12 11 13 24 6 28 -15 48 -12 27 4 -26 20 -108 31
-117 15 -6 -9 -12 -9 -24 4 -13 12 -23 14 -48 6 -18 -5 -42 -9 -53 -9 -18 1
-17 2 5 15 17 10 20 14 9 15 -9 0 -34 -20 -56 -44z"/>
<path d="M1855 2010 c3 -5 13 -10 21 -10 8 0 12 5 9 10 -3 6 -13 10 -21 10 -8
0 -12 -4 -9 -10z"/>
<path d="M1933 2004 c15 -15 -31 -34 -57 -24 -16 6 -27 6 -31 0 -4 -6 -13 -10
-22 -10 -13 0 -13 2 -2 16 12 15 11 16 -11 8 -14 -4 -37 -8 -52 -9 -14 0 -30
-3 -34 -7 -4 -5 -16 -8 -26 -8 -10 0 -18 -6 -18 -12 -1 -8 -6 -6 -14 5 -16 21
-23 22 -23 2 0 -8 4 -12 8 -9 4 2 10 0 13 -5 4 -5 18 -6 34 -2 31 9 62 8 79
-2 7 -5 21 -4 31 2 10 5 38 7 62 5 24 -3 46 -1 49 4 9 15 54 18 58 5 3 -9 -5
-13 -23 -13 -15 0 -25 -3 -22 -6 4 -3 27 -2 52 1 38 6 44 10 35 21 -6 8 -16
11 -21 8 -5 -3 -15 1 -21 9 -7 8 -21 17 -32 21 -11 4 -16 4 -12 0z"/>
<path d="M1560 1970 c0 -5 5 -10 11 -10 5 0 7 5 4 10 -3 6 -8 10 -11 10 -2 0
-4 -4 -4 -10z"/>
<path d="M1428 1963 c-10 -2 -18 -11 -18 -19 0 -13 20 -6 59 23 6 4 -20 2 -41
-4z"/>
<path d="M1590 1951 c0 -5 7 -14 15 -21 13 -11 14 -10 9 5 -5 13 -4 16 4 11 7
-4 12 -2 12 3 0 6 -9 11 -20 11 -11 0 -20 -4 -20 -9z"/>
<path d="M2012 1921 c7 -11 16 -17 20 -15 16 10 8 -9 -9 -22 -17 -12 -17 -13
-1 -14 23 0 33 36 14 55 -22 22 -39 19 -24 -4z"/>
<path d="M1580 1920 c0 -5 5 -10 11 -10 5 0 7 5 4 10 -3 6 -8 10 -11 10 -2 0
-4 -4 -4 -10z"/>
<path d="M1125 1905 c-22 -8 -41 -15 -42 -15 -2 0 -14 -18 -28 -40 -21 -33
-31 -40 -58 -41 -21 -1 -25 -3 -12 -6 11 -3 25 -9 31 -14 6 -5 23 -2 40 7 16
9 41 14 56 12 22 -4 25 -2 17 8 -11 14 -4 34 11 34 5 0 12 -11 16 -25 6 -24
10 -26 58 -23 49 3 51 4 54 34 3 28 0 32 -28 38 -48 9 -111 -4 -148 -32 l-33
-25 12 26 c27 60 147 74 237 28 23 -12 42 -18 42 -13 0 14 -92 51 -140 57 -28
3 -60 -1 -85 -10z m82 -70 c0 -18 -28 -16 -35 3 -2 7 5 12 16 12 10 0 19 -7
19 -15z m43 0 c0 -8 -6 -15 -13 -15 -8 0 -14 7 -14 15 0 8 6 15 14 15 7 0 13
-7 13 -15z"/>
<path d="M1724 1903 c-12 -2 -30 -13 -40 -24 -20 -23 -12 -25 20 -4 56 37 211
21 235 -24 9 -17 4 -16 -51 6 -44 18 -73 24 -101 20 -48 -7 -48 -7 -39 -43 7
-25 13 -29 50 -32 36 -3 43 0 53 21 8 17 17 23 30 20 24 -7 24 -19 2 -32 -17
-10 -17 -10 0 -11 9 0 26 5 36 12 15 9 22 8 36 -5 17 -17 55 -23 55 -9 0 20
-88 91 -125 101 -39 11 -118 13 -161 4z m112 -54 c3 -6 1 -16 -5 -22 -8 -8
-15 -6 -26 9 -14 18 -14 18 -15 1 0 -23 -24 -17 -28 6 -3 13 4 17 32 17 19 0
38 -5 42 -11z"/>
<path d="M1470 1890 c0 -5 5 -10 11 -10 5 0 7 5 4 10 -3 6 -8 10 -11 10 -2 0
-4 -4 -4 -10z"/>
<path d="M1520 1890 c0 -5 10 -10 23 -10 18 0 19 2 7 10 -19 13 -30 13 -30 0z"/>
<path d="M1616 1881 c-12 -20 8 -71 40 -102 19 -18 34 -27 34 -20 0 6 -11 22
-25 34 -17 15 -25 34 -27 60 -2 36 -11 47 -22 28z"/>
<path d="M840 1865 c-24 -28 8 -215 37 -215 3 0 3 22 -1 49 -4 34 -3 50 5 53
8 3 2 19 -17 47 -26 41 -27 44 -10 56 9 7 13 16 8 19 -5 3 -15 -1 -22 -9z"/>
<path d="M1360 1872 c0 -5 9 -17 20 -27 11 -10 20 -13 20 -7 0 7 0 15 0 20 0
4 -3 7 -7 7 -5 0 -14 4 -20 8 -7 5 -13 4 -13 -1z"/>
<path d="M1305 1836 c34 -29 45 -32 45 -12 0 7 -8 16 -17 19 -10 2 -27 8 -38
12 -14 5 -11 -1 10 -19z"/>
<path d="M1687 1843 c-16 -8 -25 -18 -20 -23 13 -12 75 -21 68 -10 -3 6 -13
10 -22 10 -14 0 -14 3 2 20 21 23 12 24 -28 3z"/>
<path d="M1280 1810 c0 -5 10 -10 23 -10 18 0 19 2 7 10 -19 13 -30 13 -30 0z"/>
<path d="M1576 1794 c-3 -9 -3 -20 0 -26 4 -6 0 -14 -7 -19 -7 -4 -10 -11 -6
-15 11 -12 20 3 23 41 3 38 0 44 -10 19z"/>
<path d="M1355 1790 c-3 -5 -2 -10 4 -10 5 0 13 5 16 10 3 6 2 10 -4 10 -5 0
-13 -4 -16 -10z"/>
<path d="M1423 1782 c0 -12 5 -22 9 -22 11 0 10 12 -2 30 -7 12 -9 10 -7 -8z"/>
<path d="M1290 1763 c-8 -3 -17 -10 -20 -14 -6 -9 -27 -14 -114 -25 -43 -5
-54 -9 -42 -16 9 -5 26 -6 37 -3 11 4 40 7 65 7 24 0 44 4 44 9 0 5 5 9 10 9
6 0 20 9 32 20 21 20 17 24 -12 13z"/>
<path d="M1700 1755 c0 -9 5 -13 10 -10 14 9 42 -14 33 -28 -4 -7 0 -8 11 -4
10 4 38 0 62 -8 48 -16 136 -21 99 -5 -11 4 -46 14 -77 21 -32 7 -58 15 -58
19 0 4 -10 10 -22 13 -13 2 -31 8 -40 12 -13 5 -18 2 -18 -10z"/>
<path d="M1108 1753 c12 -2 30 -2 40 0 9 3 -1 5 -23 4 -22 0 -30 -2 -17 -4z"/>
<path d="M1878 1753 c12 -2 30 -2 40 0 9 3 -1 5 -23 4 -22 0 -30 -2 -17 -4z"/>
<path d="M1580 1716 c0 -4 7 -14 15 -22 8 -9 15 -11 15 -6 0 5 -7 15 -15 22
-8 7 -15 9 -15 6z"/>
<path d="M901 1663 c0 -13 -5 -23 -11 -23 -12 0 -12 -117 0 -145 6 -13 7 2 4
43 -3 40 -1 69 6 77 6 8 10 26 7 42 -3 22 -4 23 -6 6z"/>
<path d="M1372 1658 c8 -7 24 -22 37 -33 l24 -20 -12 22 c-6 13 -20 27 -31 33
-26 14 -34 13 -18 -2z"/>
<path d="M1640 1655 c0 -8 5 -15 10 -15 6 0 10 7 10 15 0 8 -4 15 -10 15 -5 0
-10 -7 -10 -15z"/>
<path d="M1313 1631 c-23 -19 -29 -31 -15 -31 4 0 15 12 25 25 21 30 19 31
-10 6z"/>
<path d="M1770 1630 c0 -5 5 -10 11 -10 5 0 7 5 4 10 -3 6 -8 10 -11 10 -2 0
-4 -4 -4 -10z"/>
<path d="M1610 1620 c0 -5 5 -10 11 -10 5 0 7 5 4 10 -3 6 -8 10 -11 10 -2 0
-4 -4 -4 -10z"/>
<path d="M1700 1620 c0 -5 5 -10 11 -10 22 0 3 -92 -22 -111 -24 -18 -24 -19
-3 -19 15 0 24 8 28 25 4 14 10 25 14 25 10 0 7 73 -3 89 -8 14 -25 14 -25 1z"/>
<path d="M1252 1568 c6 -15 -40 -58 -62 -58 -12 0 -12 -2 -1 -9 9 -6 10 -11 2
-15 -6 -4 -11 -15 -11 -25 0 -10 -9 -21 -20 -24 -11 -3 -20 -10 -20 -16 0 -5
13 -3 30 7 16 9 30 23 30 30 0 8 14 27 30 44 17 16 30 33 30 38 0 4 11 10 24
12 16 3 27 -2 35 -15 18 -28 24 -15 8 16 -11 20 -16 24 -26 14 -9 -9 -16 -9
-32 2 -18 10 -20 10 -17 -1z"/>
<path d="M1765 1550 c3 -5 14 -10 23 -10 15 0 15 2 2 10 -20 13 -33 13 -25 0z"/>
<path d="M1363 1543 c-7 -2 -13 -15 -13 -28 0 -29 21 -37 37 -16 9 13 16 14
30 4 10 -6 17 -16 16 -22 -2 -6 4 -8 12 -5 27 11 15 -20 -16 -43 l-31 -21 26
1 c18 2 29 10 37 29 9 23 8 32 -11 58 -30 42 -57 56 -87 43z"/>
<path d="M1619 1540 c-9 -5 -25 -22 -34 -37 -15 -23 -16 -26 -2 -15 9 8 31 12
49 10 18 -2 33 2 33 7 0 6 4 15 8 21 4 7 0 15 -9 18 -20 8 -26 7 -45 -4z"/>
<path d="M960 1529 c0 -5 5 -7 10 -4 6 3 10 8 10 11 0 2 -4 4 -10 4 -5 0 -10
-5 -10 -11z"/>
<path d="M921 1514 c0 -11 3 -14 6 -6 3 7 2 16 -1 19 -3 4 -6 -2 -5 -13z"/>
<path d="M1806 1485 c4 -8 12 -15 20 -15 8 0 13 -3 12 -7 -5 -13 30 -55 36
-45 3 6 -1 12 -9 16 -8 3 -15 13 -15 21 0 9 5 13 10 10 6 -3 10 -4 10 -1 0 4
-58 36 -66 36 -2 0 -1 -7 2 -15z"/>
<path d="M915 1479 c-10 -15 -12 -128 -2 -122 10 6 9 -2 -4 -31 -9 -18 -9 -33
0 -56 8 -25 7 -38 -4 -61 -13 -24 -13 -28 -1 -23 11 4 14 -2 12 -28 -2 -18 -7
-44 -11 -58 -7 -23 -6 -24 9 -11 9 8 15 20 12 28 -3 7 -1 13 3 13 12 0 22 -30
14 -42 -3 -6 -1 -8 5 -4 6 3 13 2 17 -4 4 -6 -6 -10 -22 -11 -15 0 -22 -3 -15
-6 6 -2 12 -11 12 -19 0 -9 4 -13 9 -9 14 8 23 -12 16 -35 -7 -23 -25 -27 -25
-6 0 8 -6 21 -13 28 -7 7 -18 22 -25 33 -7 13 -12 15 -12 6 0 -8 6 -22 14 -30
25 -29 66 -112 61 -122 -4 -5 3 -9 14 -9 10 0 21 -5 23 -11 7 -20 46 12 46 37
-1 14 -5 21 -13 18 -7 -3 -10 -14 -7 -26 4 -16 1 -19 -14 -16 -10 2 -20 12
-20 23 -3 38 -4 40 -14 25 -5 -8 -11 -12 -14 -9 -3 3 0 14 8 24 12 17 17 18
41 7 21 -10 26 -10 22 0 -2 7 -9 12 -14 11 -6 -1 -16 10 -24 25 -8 15 -18 30
-24 34 -7 5 -7 8 0 8 6 0 10 22 10 48 0 47 0 48 -17 28 -15 -18 -17 -18 -18
-4 0 9 4 18 9 20 4 2 12 14 16 28 6 20 5 23 -6 13 -9 -9 -16 -10 -26 -2 -18
16 -16 30 4 22 11 -4 14 -3 9 6 -9 14 -12 40 -21 176 -3 55 -8 101 -10 103 -2
2 -6 -2 -10 -9z"/>
<path d="M1980 1480 c0 -5 5 -10 11 -10 5 0 7 5 4 10 -3 6 -8 10 -11 10 -2 0
-4 -4 -4 -10z"/>
<path d="M1563 1456 c-6 -8 -9 -17 -5 -20 3 -4 0 -5 -8 -2 -8 2 -27 7 -41 10
-24 5 -26 3 -25 -24 1 -28 2 -29 16 -11 11 14 23 18 42 14 23 -4 26 -9 24 -39
-4 -45 10 -34 17 13 2 21 6 44 8 52 5 19 -13 23 -28 7z"/>
<path d="M1378 1427 c-3 -19 -2 -25 4 -19 6 6 8 18 6 28 -3 14 -5 12 -10 -9z"/>
<path d="M1990 1429 c0 -5 5 -7 10 -4 6 3 10 8 10 11 0 2 -4 4 -10 4 -5 0 -10
-5 -10 -11z"/>
<path d="M1337 1415 c-4 -8 -2 -17 3 -20 6 -4 10 3 10 14 0 25 -6 27 -13 6z"/>
<path d="M1965 1420 c3 -5 8 -10 11 -10 2 0 4 5 4 10 0 6 -5 10 -11 10 -5 0
-7 -4 -4 -10z"/>
<path d="M2040 1421 c0 -6 4 -13 10 -16 6 -3 7 1 4 9 -7 18 -14 21 -14 7z"/>
<path d="M1900 1410 c-8 -5 -10 -10 -5 -10 6 0 17 5 25 10 8 5 11 10 5 10 -5
0 -17 -5 -25 -10z"/>
<path d="M1720 1406 c0 -2 8 -10 18 -17 15 -13 16 -12 3 4 -13 16 -21 21 -21
13z"/>
<path d="M1620 1385 c0 -8 5 -15 10 -15 6 0 10 7 10 15 0 8 -4 15 -10 15 -5 0
-10 -7 -10 -15z"/>
<path d="M1690 1394 c0 -3 9 -18 21 -32 13 -18 18 -34 14 -52 -5 -23 -4 -24 9
-7 15 19 12 35 -14 75 -14 21 -30 29 -30 16z"/>
<path d="M2981 1395 c-1 -5 -6 -43 -11 -83 -20 -157 -110 -437 -157 -493 -7
-8 -13 -20 -13 -25 0 -6 -20 -41 -45 -78 -25 -38 -45 -71 -45 -74 0 -10 -76
-99 -149 -175 -42 -43 -112 -105 -156 -138 -44 -33 -87 -66 -96 -74 -9 -8 -20
-15 -26 -15 -5 0 -38 -18 -73 -41 -41 -26 -71 -39 -84 -36 -12 3 -57 14 -100
26 -118 31 -128 30 -159 -27 -43 -80 -86 -105 -195 -118 -34 -3 -59 -10 -56
-15 3 -5 -2 -6 -10 -3 -9 4 -16 1 -16 -6 0 -19 143 -5 265 25 495 123 893 485
1059 964 41 118 79 303 73 358 -2 21 -5 34 -6 28z m-936 -1236 l40 -12 -50
-23 c-53 -24 -128 -48 -184 -58 l-35 -6 25 27 c13 15 26 30 29 33 3 3 11 18
18 34 12 28 15 28 65 23 29 -3 70 -11 92 -18z"/>
<path d="M1437 1384 c-7 -8 31 -39 48 -39 5 0 13 -11 17 -25 6 -20 7 -19 3 8
-2 17 0 32 5 32 6 0 10 5 10 11 0 8 -5 7 -16 -2 -14 -11 -18 -10 -30 6 -10 14
-14 15 -14 4 0 -11 -2 -11 -8 -1 -5 7 -11 9 -15 6z"/>
<path d="M1532 1361 c1 -17 6 -31 10 -31 12 0 10 48 -2 55 -6 4 -10 -5 -8 -24z"/>
<path d="M1660 1376 c0 -8 5 -18 10 -21 6 -3 10 1 10 9 0 8 -4 18 -10 21 -5 3
-10 -1 -10 -9z"/>
<path d="M11 1358 c-2 -41 37 -230 66 -322 108 -346 355 -643 708 -852 45 -27
225 -104 242 -104 4 0 2 5 -5 12 -7 7 -12 27 -12 45 l0 33 -91 0 c-88 0 -92 1
-157 41 -67 40 -86 54 -197 138 -147 111 -299 302 -394 496 -78 158 -105 245
-149 490 -6 30 -10 39 -11 23z m977 -1237 c3 -10 -2 -11 -19 -6 -39 12 -48 27
-15 23 16 -2 31 -9 34 -17z"/>
<path d="M1081 1368 c-1 -10 -5 -18 -11 -18 -5 0 -10 -5 -10 -12 0 -8 6 -7 16
4 9 9 14 22 11 30 -4 9 -6 7 -6 -4z"/>
<path d="M1357 1373 c-4 -3 -7 -11 -7 -17 0 -6 5 -5 12 2 6 6 9 14 7 17 -3 3
-9 2 -12 -2z"/>
<path d="M1280 1335 c0 -27 4 -35 18 -35 13 0 14 2 3 9 -9 6 -11 18 -7 35 4
15 2 26 -4 26 -5 0 -10 -16 -10 -35z"/>
<path d="M1410 1360 c0 -8 5 -22 10 -30 9 -13 10 -13 10 0 0 8 -5 22 -10 30
-9 13 -10 13 -10 0z"/>
<path d="M1780 1365 c0 -2 9 -9 20 -15 16 -9 18 -8 14 5 -5 13 -34 22 -34 10z"/>
<path d="M1175 1326 l-39 -33 27 -7 c19 -4 25 -11 22 -24 -3 -9 2 -2 10 16 9
18 13 38 9 44 -4 5 0 14 7 19 7 4 11 10 8 13 -2 3 -22 -10 -44 -28z m7 -28
c-7 -7 -12 -8 -12 -2 0 14 12 26 19 19 2 -3 -1 -11 -7 -17z"/>
<path d="M1384 1344 c3 -9 6 -18 6 -20 0 -2 5 -4 11 -4 8 0 9 4 0 13 -6 8 -8
17 -4 20 3 4 1 7 -6 7 -8 0 -11 -6 -7 -16z"/>
<path d="M1610 1349 c0 -5 5 -7 10 -4 6 3 10 8 10 11 0 2 -4 4 -10 4 -5 0 -10
-5 -10 -11z"/>
<path d="M1440 1340 c0 -5 5 -10 10 -10 6 0 10 5 10 10 0 6 -4 10 -10 10 -5 0
-10 -4 -10 -10z"/>
<path d="M1584 1339 c-3 -6 -1 -16 5 -22 8 -8 11 -5 11 11 0 24 -5 28 -16 11z"/>
<path d="M1641 1345 c1 -19 18 -51 18 -35 0 8 -4 22 -9 30 -5 8 -9 11 -9 5z"/>
<path d="M1940 1341 c0 -5 5 -13 10 -16 6 -3 10 -2 10 4 0 5 -4 13 -10 16 -5
3 -10 2 -10 -4z"/>
<path d="M1790 1331 c0 -5 5 -13 10 -16 6 -3 10 -2 10 4 0 5 -4 13 -10 16 -5
3 -10 2 -10 -4z"/>
<path d="M1860 1319 c0 -5 5 -7 10 -4 6 3 10 8 10 11 0 2 -4 4 -10 4 -5 0 -10
-5 -10 -11z"/>
<path d="M1820 1312 c0 -12 19 -26 26 -19 2 2 -2 10 -11 17 -9 8 -15 8 -15 2z"/>
<path d="M1780 1305 c0 -15 18 -40 24 -34 3 3 -1 14 -9 25 -8 10 -14 15 -15 9z"/>
<path d="M1325 1269 c-35 -10 -99 -21 -136 -23 -19 -1 -25 -5 -21 -15 4 -10 1
-13 -12 -8 -10 4 -20 7 -22 7 -3 0 -2 5 1 10 3 6 1 10 -4 10 -6 0 -11 -7 -11
-15 0 -8 5 -15 10 -15 6 0 10 -11 10 -25 0 -14 5 -25 10 -25 6 0 10 9 10 21 0
12 4 17 11 14 6 -4 17 1 24 11 10 13 14 15 15 5 0 -10 3 -11 13 -2 16 13 123
15 342 7 249 -8 255 -9 255 -20 0 -6 5 -4 10 4 8 13 11 13 19 1 5 -7 14 -12
21 -9 8 2 2 11 -14 21 -36 24 -134 31 -299 22 -39 -2 -56 0 -49 7 5 5 43 10
83 11 l74 1 -54 9 c-37 7 -62 7 -80 0 -14 -6 -35 -14 -46 -19 -18 -7 -18 -6
-6 9 12 16 8 17 -55 16 -38 0 -82 -5 -99 -10z m72 -5 c-3 -3 -12 -4 -19 -1 -8
3 -5 6 6 6 11 1 17 -2 13 -5z m53 -3 c0 -5 -9 -7 -20 -4 -11 3 -20 7 -20 9 0
2 9 4 20 4 11 0 20 -4 20 -9z"/>
<path d="M1846 1271 c-3 -5 1 -11 9 -15 8 -3 15 -1 15 4 0 13 -18 22 -24 11z"/>
<path d="M1893 1229 c12 -20 13 -29 4 -38 -8 -8 -8 -11 0 -11 21 0 22 29 1 52
l-20 23 15 -26z"/>
<path d="M1099 1193 c-13 -16 -12 -17 4 -4 9 7 17 15 17 17 0 8 -8 3 -21 -13z"/>
<path d="M1350 1191 c0 -3 14 -12 30 -18 17 -6 30 -8 30 -4 0 3 -13 12 -30 18
-16 6 -30 8 -30 4z"/>
<path d="M1927 1180 c-3 -11 -1 -20 4 -20 5 0 9 9 9 20 0 11 -2 20 -4 20 -2 0
-6 -9 -9 -20z"/>
<path d="M1585 1171 c-3 -5 -1 -12 5 -16 5 -3 10 1 10 9 0 18 -6 21 -15 7z"/>
<path d="M1625 1170 c3 -5 16 -10 28 -9 21 0 21 1 2 9 -28 12 -37 12 -30 0z"/>
<path d="M1438 1158 c5 -5 16 -8 23 -6 8 3 3 7 -10 11 -17 4 -21 3 -13 -5z"/>
<path d="M1330 1150 c0 -5 5 -10 10 -10 6 0 10 5 10 10 0 6 -4 10 -10 10 -5 0
-10 -4 -10 -10z"/>
<path d="M2057 1153 c-9 -2 -15 -9 -12 -14 9 -14 22 -11 29 6 3 8 4 14 3 14
-1 -1 -10 -3 -20 -6z"/>
<path d="M875 1140 c-3 -5 -1 -10 4 -10 6 0 11 5 11 10 0 6 -2 10 -4 10 -3 0
-8 -4 -11 -10z"/>
<path d="M1936 1135 c4 -8 8 -15 10 -15 2 0 4 7 4 15 0 8 -4 15 -10 15 -5 0
-7 -7 -4 -15z"/>
<path d="M1026 1132 c-3 -5 1 -9 9 -9 8 0 12 4 9 9 -3 4 -7 8 -9 8 -2 0 -6 -4
-9 -8z"/>
<path d="M1413 1130 c14 -9 15 -15 6 -31 -6 -12 -8 -24 -4 -27 3 -3 8 4 12 17
3 13 11 20 19 17 8 -3 11 0 7 10 -3 7 -9 14 -13 14 -5 0 -17 3 -27 6 -17 5
-17 5 0 -6z"/>
<path d="M1312 1116 c7 -8 15 -12 17 -11 5 6 -10 25 -20 25 -5 0 -4 -6 3 -14z"/>
<path d="M1471 1118 c23 -19 8 -59 -21 -53 -11 2 -20 0 -20 -4 0 -13 87 -22
144 -15 34 4 53 11 53 20 0 9 -5 10 -19 3 -23 -12 -38 -4 -38 22 0 24 17 25
22 2 3 -15 5 -13 10 5 6 23 5 23 -55 20 -34 -1 -69 1 -77 6 -11 5 -11 4 1 -6z
m79 -15 c-8 -3 -24 -15 -34 -26 -13 -13 -21 -16 -24 -8 -6 19 19 41 47 40 15
0 20 -3 11 -6z"/>
<path d="M1140 1111 c0 -5 5 -13 10 -16 6 -3 10 -2 10 4 0 5 -4 13 -10 16 -5
3 -10 2 -10 -4z"/>
<path d="M1367 1099 c3 -10 9 -16 14 -13 13 8 11 21 -5 27 -10 4 -12 0 -9 -14z"/>
<path d="M1620 1112 c0 -5 9 -17 21 -28 21 -19 21 -19 8 9 -12 26 -29 37 -29
19z"/>
<path d="M1656 1105 c4 -8 8 -15 10 -15 2 0 4 7 4 15 0 8 -4 15 -10 15 -5 0
-7 -7 -4 -15z"/>
<path d="M1776 1111 c-4 -5 -2 -12 3 -15 5 -4 12 -2 15 3 4 5 2 12 -3 15 -5 4
-12 2 -15 -3z"/>
<path d="M2023 1096 c7 -14 17 -26 24 -26 6 0 13 -6 16 -12 2 -7 7 -11 10 -8
3 3 -9 20 -28 39 -31 30 -33 31 -22 7z"/>
<path d="M1055 1100 c3 -5 8 -10 11 -10 2 0 4 5 4 10 0 6 -5 10 -11 10 -5 0
-7 -4 -4 -10z"/>
<path d="M1935 1090 c-3 -5 -1 -10 4 -10 6 0 11 5 11 10 0 6 -2 10 -4 10 -3 0
-8 -4 -11 -10z"/>
<path d="M1959 1079 c-7 -14 -7 -25 -1 -31 6 -6 11 1 14 21 5 36 3 38 -13 10z"/>
<path d="M2082 1088 c6 -18 25 -21 25 -3 0 8 -7 15 -14 15 -8 0 -13 -5 -11
-12z"/>
<path d="M1897 1073 c-10 -9 -9 -23 1 -23 5 0 9 7 9 15 0 17 -1 18 -10 8z"/>
<path d="M1106 1057 c3 -10 9 -15 12 -12 3 3 0 11 -7 18 -10 9 -11 8 -5 -6z"/>
<path d="M1230 1060 c-9 -6 -10 -10 -3 -10 6 0 15 5 18 10 8 12 4 12 -15 0z"/>
<path d="M1786 1054 c-11 -7 -18 -16 -15 -18 2 -2 13 2 23 10 11 7 18 16 15
18 -2 2 -13 -2 -23 -10z"/>
<path d="M1000 1056 c0 -2 7 -7 16 -10 8 -3 12 -2 9 4 -6 10 -25 14 -25 6z"/>
<path d="M1055 1050 c-8 -13 5 -13 25 0 13 8 13 10 -2 10 -9 0 -20 -4 -23 -10z"/>
<path d="M1287 1039 c7 -7 15 -10 18 -7 3 3 -2 9 -12 12 -14 6 -15 5 -6 -5z"/>
<path d="M1082 1024 c-7 -8 -8 -14 -3 -14 10 0 25 19 20 25 -2 1 -10 -3 -17
-11z"/>
<path d="M1156 1024 c-18 -18 -20 -24 -6 -24 5 0 14 9 20 20 13 24 7 26 -14 4z"/>
<path d="M1700 1030 c-11 -7 -6 -10 20 -10 26 0 31 3 20 10 -8 5 -17 10 -20
10 -3 0 -12 -5 -20 -10z"/>
<path d="M2020 1030 c8 -5 20 -10 25 -10 6 0 3 5 -5 10 -8 5 -19 10 -25 10 -5
0 -3 -5 5 -10z"/>
<path d="M1026 1015 c4 -8 10 -12 15 -9 14 8 10 24 -6 24 -9 0 -12 -6 -9 -15z"/>
<path d="M1950 1010 c0 -5 5 -10 10 -10 6 0 10 5 10 10 0 6 -4 10 -10 10 -5 0
-10 -4 -10 -10z"/>
<path d="M1887 1003 c-12 -11 -8 -30 6 -30 7 0 14 9 14 19 2 18 -8 24 -20 11z"/>
<path d="M2065 1000 c-4 -6 -11 -8 -16 -5 -5 4 -9 1 -9 -4 0 -6 5 -11 11 -11
5 0 7 -4 4 -10 -3 -5 1 -10 9 -10 11 0 15 8 14 25 -3 28 -4 30 -13 15z"/>
<path d="M2005 990 c3 -5 8 -10 11 -10 2 0 4 5 4 10 0 6 -5 10 -11 10 -5 0 -7
-4 -4 -10z"/>
<path d="M1107 975 c-4 -8 -2 -17 2 -20 5 -2 11 4 14 15 6 23 -8 27 -16 5z"/>
<path d="M1145 980 c-8 -13 5 -13 25 0 13 8 13 10 -2 10 -9 0 -20 -4 -23 -10z"/>
<path d="M1980 981 c0 -5 5 -13 10 -16 6 -3 10 -2 10 4 0 5 -4 13 -10 16 -5 3
-10 2 -10 -4z"/>
<path d="M1070 970 c-13 -8 -12 -10 3 -10 9 0 17 5 17 10 0 12 -1 12 -20 0z"/>
<path d="M1931 954 c0 -11 3 -14 6 -6 3 7 2 16 -1 19 -3 4 -6 -2 -5 -13z"/>
<path d="M1136 946 c3 -9 11 -16 16 -16 13 0 5 23 -10 28 -7 2 -10 -2 -6 -12z"/>
<path d="M1180 956 c0 -2 7 -7 16 -10 8 -3 12 -2 9 4 -6 10 -25 14 -25 6z"/>
<path d="M1668 949 c-10 -5 -18 -18 -18 -27 1 -15 2 -15 11 1 6 10 20 22 32
27 13 5 16 9 7 9 -8 0 -23 -4 -32 -10z"/>
<path d="M1872 913 c-24 -52 -27 -69 -13 -77 4 -3 6 5 4 17 -4 28 13 57 25 40
4 -7 7 5 7 28 0 21 0 39 0 39 0 0 -10 -21 -23 -47z"/>
<path d="M1213 927 c-10 -13 -25 -21 -33 -19 -8 3 -12 1 -8 -3 4 -4 3 -16 -3
-26 -5 -11 -7 -19 -3 -19 7 0 16 11 55 63 25 33 18 37 -8 4z"/>
<path d="M1354 925 c-4 -14 -4 -29 0 -32 3 -4 6 4 6 16 0 12 4 19 10 16 6 -3
7 1 4 9 -8 22 -13 20 -20 -9z"/>
<path d="M1455 930 c-3 -6 1 -7 9 -4 18 7 21 14 7 14 -6 0 -13 -4 -16 -10z"/>
<path d="M1500 930 c0 -5 5 -10 11 -10 5 0 7 5 4 10 -3 6 -8 10 -11 10 -2 0
-4 -4 -4 -10z"/>
<path d="M1953 923 c-4 -10 -10 -20 -14 -23 -4 -3 1 -17 11 -30 19 -24 19 -24
13 -2 -4 16 -1 22 11 22 10 0 15 -4 11 -9 -3 -5 -1 -12 5 -16 15 -9 12 21 -3
34 -8 6 -17 7 -22 3 -4 -4 -5 3 -2 16 6 26 -1 30 -10 5z"/>
<path d="M2000 930 c0 -5 5 -10 10 -10 6 0 10 5 10 10 0 6 -4 10 -10 10 -5 0
-10 -4 -10 -10z"/>
<path d="M1295 920 c-3 -5 -2 -10 4 -10 5 0 13 5 16 10 3 6 2 10 -4 10 -5 0
-13 -4 -16 -10z"/>
<path d="M1742 919 c2 -7 10 -15 17 -17 8 -3 12 1 9 9 -2 7 -10 15 -17 17 -8
3 -12 -1 -9 -9z"/>
<path d="M1469 903 c-13 -16 -12 -17 4 -4 16 13 21 21 13 21 -2 0 -10 -8 -17
-17z"/>
<path d="M1556 898 c3 -5 10 -6 15 -3 13 9 11 12 -6 12 -8 0 -12 -4 -9 -9z"/>
<path d="M1612 881 c6 -14 14 -46 18 -71 l7 -45 2 57 c0 31 -4 60 -9 63 -6 4
-8 10 -6 14 3 4 -1 8 -9 8 -10 0 -11 -6 -3 -26z"/>
<path d="M920 890 c0 -5 5 -10 11 -10 5 0 7 5 4 10 -3 6 -8 10 -11 10 -2 0 -4
-4 -4 -10z"/>
<path d="M1076 885 c-3 -8 -1 -15 4 -15 6 0 10 5 10 11 0 5 5 7 10 4 6 -3 10
-1 10 4 0 17 -27 13 -34 -4z"/>
<path d="M1275 890 c-4 -6 1 -7 12 -3 17 6 16 5 -1 -16 -17 -18 -17 -23 -5
-34 7 -6 10 -8 6 -3 -4 5 -1 19 7 32 14 21 12 34 -5 34 -4 0 -11 -4 -14 -10z"/>
<path d="M1032 875 c-17 -12 -26 -13 -42 -5 -16 8 -24 8 -34 -3 -11 -11 -10
-17 6 -36 10 -13 22 -20 26 -16 4 4 1 10 -5 12 -16 6 -17 33 -3 33 6 0 13 -7
16 -15 5 -13 8 -13 20 0 18 17 47 8 40 -12 -3 -8 -6 -21 -6 -29 0 -9 -5 -12
-11 -8 -6 3 -8 15 -6 26 4 16 3 17 -9 7 -8 -6 -14 -17 -14 -25 0 -15 34 -36
44 -27 3 3 6 -4 6 -16 0 -12 5 -32 12 -44 6 -12 12 -40 13 -62 1 -22 10 -67
18 -100 9 -33 30 -111 46 -173 32 -119 51 -160 110 -229 20 -23 55 -64 79 -92
24 -28 51 -51 59 -51 10 0 -7 24 -43 62 -67 71 -154 188 -154 209 0 8 -20 83
-45 167 -49 172 -64 249 -46 238 6 -4 11 -14 11 -22 0 -8 4 -13 9 -9 6 3 14
-2 19 -11 5 -9 14 -14 21 -10 19 12 12 25 -15 32 -22 6 -25 11 -20 36 5 26 4
28 -10 13 -20 -19 -29 -13 -43 26 -10 28 -9 31 8 26 10 -2 25 0 32 5 11 7 9 8
-6 6 -16 -2 -19 2 -17 25 2 15 -1 27 -8 27 -6 0 -9 -4 -6 -8 2 -4 1 -14 -4
-22 -7 -12 -10 -12 -16 3 -3 9 -1 23 5 31 9 11 8 15 -5 20 -9 4 -14 13 -10 21
7 19 6 19 -22 0z"/>
<path d="M1490 873 c0 -15 2 -16 10 -3 7 11 10 11 10 2 0 -7 5 -10 10 -7 17
10 11 25 -10 25 -12 0 -20 -7 -20 -17z"/>
<path d="M1710 881 c0 -5 7 -12 16 -15 10 -4 13 -13 9 -28 -5 -18 -4 -20 4 -8
9 12 11 13 11 1 0 -8 3 -12 6 -8 7 7 -27 67 -38 67 -4 0 -8 -4 -8 -9z"/>
<path d="M1795 880 c3 -5 8 -10 11 -10 2 0 4 5 4 10 0 6 -5 10 -11 10 -5 0 -7
-4 -4 -10z"/>
<path d="M1327 856 c-19 -29 -14 -35 10 -11 8 8 13 20 11 26 -2 7 -12 0 -21
-15z"/>
<path d="M1410 861 c15 -29 27 -33 33 -11 6 22 -8 28 -16 8 -3 -8 -6 -6 -6 5
-1 9 -6 17 -11 17 -7 0 -7 -6 0 -19z"/>
<path d="M1220 859 c0 -6 -7 -9 -14 -6 -10 4 -13 1 -10 -8 7 -17 34 -8 34 11
0 8 -2 14 -5 14 -3 0 -5 -5 -5 -11z"/>
<path d="M1457 863 c-11 -10 -8 -53 3 -53 6 0 10 14 10 30 0 31 -2 35 -13 23z"/>
<path d="M1574 855 c-8 -20 3 -48 18 -43 6 2 14 11 17 19 3 12 1 12 -14 -1
-17 -14 -18 -13 -13 13 6 29 1 36 -8 12z"/>
<path d="M1901 863 c0 -4 4 -17 9 -28 8 -19 9 -19 9 2 1 12 -3 25 -9 28 -5 3
-10 3 -9 -2z"/>
<path d="M1129 833 c-13 -16 -12 -17 4 -4 9 7 17 15 17 17 0 8 -8 3 -21 -13z"/>
<path d="M1381 845 c0 -5 4 -18 8 -28 6 -17 8 -17 20 -3 11 13 11 16 -2 16 -8
0 -18 6 -20 13 -3 6 -5 8 -6 2z"/>
<path d="M1819 836 c7 -8 8 -16 4 -18 -4 -3 -2 -3 5 -2 6 2 12 -4 12 -13 0 -9
3 -13 7 -10 8 9 -17 57 -30 57 -5 0 -4 -6 2 -14z"/>
<path d="M1487 829 c6 -6 9 -19 6 -28 -4 -13 -3 -13 5 -2 12 16 5 41 -11 41
-8 0 -8 -3 0 -11z"/>
<path d="M1680 824 c0 -8 5 -12 10 -9 6 4 8 11 5 16 -9 14 -15 11 -15 -7z"/>
<path d="M1940 826 c0 -8 5 -18 10 -21 6 -3 10 -1 10 5 0 6 5 8 10 5 6 -3 10
-4 10 -1 0 3 -9 10 -20 16 -16 8 -20 8 -20 -4z"/>
<path d="M1255 819 c-4 -6 -5 -12 -2 -15 2 -3 7 2 10 11 7 17 1 20 -8 4z"/>
<path d="M1520 814 c0 -8 5 -12 10 -9 6 3 10 10 10 16 0 5 -4 9 -10 9 -5 0
-10 -7 -10 -16z"/>
<path d="M1296 796 c-35 -31 -33 -39 4 -18 16 9 30 23 30 30 0 17 -5 15 -34
-12z"/>
<path d="M1772 795 c0 -16 2 -22 5 -12 2 9 2 23 0 30 -3 6 -5 -1 -5 -18z"/>
<path d="M1870 805 c0 -8 2 -15 4 -15 2 0 6 7 10 15 3 8 1 15 -4 15 -6 0 -10
-7 -10 -15z"/>
<path d="M2080 810 c-9 -6 -10 -10 -3 -10 6 0 15 5 18 10 8 12 4 12 -15 0z"/>
<path d="M1120 799 c0 -5 5 -7 10 -4 6 3 10 8 10 11 0 2 -4 4 -10 4 -5 0 -10
-5 -10 -11z"/>
<path d="M1355 800 c-3 -5 -1 -10 4 -10 6 0 11 5 11 10 0 6 -2 10 -4 10 -3 0
-8 -4 -11 -10z"/>
<path d="M1995 800 c-3 -5 1 -10 10 -10 9 0 13 5 10 10 -3 6 -8 10 -10 10 -2
0 -7 -4 -10 -10z"/>
<path d="M1557 794 c-4 -4 -7 -14 -7 -23 0 -11 3 -12 11 -4 6 6 10 16 7 23 -2
6 -7 8 -11 4z"/>
<path d="M1406 775 c-3 -8 -1 -15 3 -15 5 0 11 7 15 15 3 8 1 15 -3 15 -5 0
-11 -7 -15 -15z"/>
<path d="M1323 765 c-3 -9 -3 -19 1 -22 3 -4 6 1 6 11 0 9 5 14 10 11 6 -3 10
-1 10 4 0 17 -20 13 -27 -4z"/>
<path d="M1880 769 c0 -5 5 -7 10 -4 6 3 10 8 10 11 0 2 -4 4 -10 4 -5 0 -10
-5 -10 -11z"/>
<path d="M1910 770 c0 -5 5 -10 11 -10 5 0 7 5 4 10 -3 6 -8 10 -11 10 -2 0
-4 -4 -4 -10z"/>
<path d="M1140 757 c0 -9 4 -17 10 -17 5 0 14 -15 20 -32 l10 -33 -5 35 c-6
39 -35 78 -35 47z"/>
<path d="M1665 750 c-7 -21 0 -40 16 -40 5 0 9 5 9 11 0 5 -4 7 -10 4 -5 -3
-10 1 -10 9 0 9 5 16 10 16 6 0 10 5 10 10 0 18 -18 11 -25 -10z"/>
<path d="M1835 759 c-4 -6 -5 -12 -2 -15 2 -3 7 2 10 11 7 17 1 20 -8 4z"/>
<path d="M1635 751 c-3 -5 -2 -12 3 -15 5 -3 9 1 9 9 0 17 -3 19 -12 6z"/>
<path d="M1800 751 c0 -6 4 -13 10 -16 6 -3 7 1 4 9 -7 18 -14 21 -14 7z"/>
<path d="M1346 735 c-9 -26 -7 -32 5 -12 6 10 9 21 6 23 -2 3 -7 -2 -11 -11z"/>
<path d="M1476 741 c-3 -5 0 -13 7 -19 10 -8 13 -6 13 9 0 20 -11 25 -20 10z"/>
<path d="M1563 743 c-18 -7 -16 -20 2 -20 8 0 15 6 15 14 0 7 -1 13 -2 12 -2
0 -9 -3 -15 -6z"/>
<path d="M1760 739 c0 -5 5 -7 10 -4 6 3 10 8 10 11 0 2 -4 4 -10 4 -5 0 -10
-5 -10 -11z"/>
<path d="M1876 734 c-3 -8 -10 -13 -15 -10 -5 3 -11 -1 -14 -9 -5 -12 -2 -12
18 -3 24 11 42 38 26 38 -5 0 -12 -7 -15 -16z"/>
<path d="M1954 728 c-3 -13 -15 -35 -25 -49 -21 -30 -15 -46 8 -23 9 8 13 18
10 21 -8 8 19 33 35 33 10 0 9 3 -2 10 -13 8 -12 10 3 10 9 0 17 5 17 10 0 20
-39 10 -46 -12z"/>
<path d="M1292 725 c-9 -11 -10 -20 -2 -35 14 -26 15 -26 17 15 1 19 1 35 0
35 -1 -1 -8 -7 -15 -15z"/>
<path d="M1390 729 c0 -5 5 -7 10 -4 6 3 10 8 10 11 0 2 -4 4 -10 4 -5 0 -10
-5 -10 -11z"/>
<path d="M1230 713 c0 -19 19 -55 20 -38 0 6 3 20 6 33 5 16 2 22 -10 22 -9 0
-16 -8 -16 -17z"/>
<path d="M2070 719 c0 -5 5 -7 10 -4 6 3 10 8 10 11 0 2 -4 4 -10 4 -5 0 -10
-5 -10 -11z"/>
<path d="M1054 703 c2 -12 -1 -24 -8 -26 -8 -3 -8 -8 0 -16 15 -16 24 17 12
44 -8 18 -8 18 -4 -2z"/>
<path d="M1441 704 c0 -11 3 -14 6 -6 3 7 2 16 -1 19 -3 4 -6 -2 -5 -13z"/>
<path d="M1870 690 c-14 -10 -23 -20 -20 -22 3 -2 13 -10 23 -17 15 -12 17
-12 11 3 -4 10 1 25 11 36 23 25 8 25 -25 0z"/>
<path d="M1810 665 c11 -50 19 -54 16 -9 -1 21 -7 39 -13 41 -8 3 -9 -7 -3
-32z"/>
<path d="M1204 650 c0 -30 5 -42 19 -46 10 -3 21 -3 24 0 4 3 -2 6 -11 6 -12
0 -16 5 -12 15 3 8 2 15 -3 15 -4 0 -6 11 -3 25 2 14 0 25 -5 25 -6 0 -10 -18
-9 -40z"/>
<path d="M1267 676 c-4 -9 -1 -15 6 -13 6 1 13 -8 15 -21 3 -21 1 -22 -17 -13
-28 15 -40 13 -18 -3 10 -8 22 -27 28 -43 l9 -28 -4 28 c-2 15 0 27 4 27 17 0
17 29 0 54 -14 22 -19 24 -23 12z"/>
<path d="M1371 674 c0 -11 3 -14 6 -6 3 7 2 16 -1 19 -3 4 -6 -2 -5 -13z"/>
<path d="M1960 668 c0 -9 5 -20 11 -23 17 -11 18 -2 3 19 -12 17 -14 17 -14 4z"/>
<path d="M1460 648 c0 -11 12 -10 30 2 12 7 10 9 -8 7 -12 0 -22 -5 -22 -9z"/>
<path d="M1791 623 c-1 -13 -5 -23 -11 -23 -5 0 -10 -4 -10 -10 0 -12 27 -14
33 -2 2 4 1 18 -4 32 -7 24 -7 24 -8 3z"/>
<path d="M2010 630 c0 -5 5 -10 11 -10 5 0 7 5 4 10 -3 6 -8 10 -11 10 -2 0
-4 -4 -4 -10z"/>
<path d="M1316 614 c-5 -13 -4 -14 7 -6 16 13 37 -2 37 -27 0 -8 3 -11 7 -8 9
10 -18 57 -33 57 -6 0 -15 -7 -18 -16z"/>
<path d="M1891 623 c3 -20 -3 -56 -8 -45 -3 7 -23 -22 -45 -65 -22 -43 -49
-90 -59 -105 -11 -14 -19 -29 -19 -33 0 -17 -58 -124 -86 -160 -52 -66 -71
-85 -76 -79 -3 2 -21 -11 -41 -31 -19 -19 -29 -35 -22 -35 7 0 19 7 26 16 8 9
30 27 49 39 51 32 110 114 178 245 72 142 95 183 104 190 14 10 21 70 9 70 -6
0 -10 -3 -10 -7z"/>
<path d="M1500 610 c0 -5 5 -10 11 -10 5 0 7 5 4 10 -3 6 -8 10 -11 10 -2 0
-4 -4 -4 -10z"/>
<path d="M1709 613 c-1 -5 -1 -12 0 -17 1 -5 -4 -13 -11 -18 -10 -7 -10 -9 2
-5 8 2 16 13 16 25 1 20 -5 31 -7 15z"/>
<path d="M1955 600 c21 -24 26 -25 19 -6 -3 8 -13 17 -22 21 -13 5 -13 2 3
-15z"/>
<path d="M1177 599 c7 -7 15 -10 18 -7 3 3 -2 9 -12 12 -14 6 -15 5 -6 -5z"/>
<path d="M1650 599 c0 -5 5 -7 10 -4 6 3 10 8 10 11 0 2 -4 4 -10 4 -5 0 -10
-5 -10 -11z"/>
<path d="M1819 583 c-13 -16 -12 -17 4 -4 16 13 21 21 13 21 -2 0 -10 -8 -17
-17z"/>
<path d="M1490 586 c0 -2 7 -7 16 -10 8 -3 12 -2 9 4 -6 10 -25 14 -25 6z"/>
<path d="M1235 570 c3 -5 10 -10 16 -10 5 0 9 5 9 10 0 6 -7 10 -16 10 -8 0
-12 -4 -9 -10z"/>
<path d="M1310 560 c0 -5 9 -10 20 -10 11 0 20 5 20 10 0 6 -9 10 -20 10 -11
0 -20 -4 -20 -10z"/>
<path d="M1540 558 c0 -9 5 -20 10 -23 13 -8 13 5 0 25 -8 13 -10 13 -10 -2z"/>
<path d="M1427 554 c-9 -9 23 -62 41 -69 28 -10 24 4 -7 31 -17 14 -29 30 -25
35 6 10 0 12 -9 3z"/>
<path d="M1635 550 c-3 -5 1 -10 10 -10 9 0 13 5 10 10 -3 6 -8 10 -10 10 -2
0 -7 -4 -10 -10z"/>
<path d="M1751 538 c-13 -20 -12 -22 1 -11 8 7 18 10 21 6 4 -3 7 1 7 10 0 24
-13 21 -29 -5z"/>
<path d="M1275 540 c3 -5 10 -10 16 -10 5 0 9 5 9 10 0 6 -7 10 -16 10 -8 0
-12 -4 -9 -10z"/>
<path d="M1385 539 c-4 -6 -14 -8 -22 -5 -9 4 -11 2 -7 -6 5 -8 2 -9 -11 -4
-15 5 -16 4 -5 -9 17 -21 25 -19 44 10 9 14 14 25 12 25 -3 0 -8 -5 -11 -11z"/>
<path d="M1675 530 c-3 -5 -1 -10 4 -10 6 0 11 5 11 10 0 6 -2 10 -4 10 -3 0
-8 -4 -11 -10z"/>
<path d="M1915 520 c3 -5 8 -10 11 -10 2 0 4 5 4 10 0 6 -5 10 -11 10 -5 0 -7
-4 -4 -10z"/>
<path d="M1410 511 c0 -5 7 -12 16 -15 14 -5 15 -4 4 9 -14 17 -20 19 -20 6z"/>
<path d="M1630 506 c0 -9 5 -16 10 -16 6 0 10 4 10 9 0 6 -4 13 -10 16 -5 3
-10 -1 -10 -9z"/>
<path d="M1266 496 c3 -9 11 -16 16 -16 13 0 5 23 -10 28 -7 2 -10 -2 -6 -12z"/>
<path d="M1700 500 c-8 -5 -11 -12 -8 -16 4 -3 14 1 23 10 18 17 9 21 -15 6z"/>
<path d="M1510 488 c0 -24 28 -33 42 -13 5 7 14 6 28 -2 25 -16 30 -16 30 1 0
10 -15 15 -50 18 -28 1 -50 0 -50 -4z"/>
<path d="M1340 486 c0 -2 7 -9 15 -16 13 -11 14 -10 9 4 -5 14 -24 23 -24 12z"/>
<path d="M1417 464 c3 -7 9 -14 14 -14 14 0 10 17 -5 23 -10 4 -13 1 -9 -9z"/>
<path d="M1628 463 c6 -2 18 -2 25 0 6 3 1 5 -13 5 -14 0 -19 -2 -12 -5z"/>
<path d="M1460 441 c0 -5 7 -12 16 -15 14 -5 15 -4 4 9 -14 17 -20 19 -20 6z"/>
<path d="M2251 424 c0 -11 3 -14 6 -6 3 7 2 16 -1 19 -3 4 -6 -2 -5 -13z"/>
<path d="M1551 260 c0 -8 4 -22 9 -30 12 -18 12 -2 0 25 -6 13 -9 15 -9 5z"/>
<path d="M1714 164 c-18 -14 -18 -15 4 -4 12 6 22 13 22 15 0 8 -5 6 -26 -11z"/>
<path d="M1475 130 c3 -5 8 -10 11 -10 2 0 4 5 4 10 0 6 -5 10 -11 10 -5 0 -7
-4 -4 -10z"/>
<path d="M1256 74 c-3 -26 -5 -48 -4 -49 2 -1 26 -5 53 -9 34 -4 43 -3 30 3
-11 5 -30 10 -42 10 -20 1 -23 6 -21 41 2 57 -8 59 -16 4z"/>
<path d="M1072 65 c39 -14 137 -31 128 -22 -7 7 -129 37 -148 36 -9 0 0 -7 20
-14z"/>
<path d="M1496 45 c-9 -26 -7 -32 5 -12 6 10 9 21 6 23 -2 3 -7 -2 -11 -11z"/>
<path d="M1210 40 c0 -5 5 -10 11 -10 5 0 7 5 4 10 -3 6 -8 10 -11 10 -2 0 -4
-4 -4 -10z"/>
<path d="M1545 40 c-18 -8 -17 -9 8 -9 15 -1 27 4 27 9 0 12 -8 12 -35 0z"/>
</g>
</svg>
