<svg width="638" height="934" viewBox="0 0 638 934" fill="none" xmlns="http://www.w3.org/2000/svg">
<path d="M4 930V4H306.603C407.047 4 482.486 24.7756 532.92 66.3269C583.778 107.878 609.207 169.357 609.207 250.764C609.207 294.011 596.916 332.382 572.335 365.878C547.754 398.949 514.272 424.601 471.891 442.832C521.901 456.824 561.316 483.536 590.135 522.967C619.378 561.974 634 608.614 634 662.885C634 745.987 607.088 811.282 553.263 858.769C499.439 906.256 423.364 930 325.039 930H4ZM140.68 496.891V830.15H327.582C384.373 830.15 429.086 815.522 461.719 786.266C494.777 756.587 511.306 715.884 511.306 664.157C511.306 552.646 450.7 496.891 329.489 496.891H140.68ZM126.059 398.949H310.418C363.818 398.949 406.412 385.593 438.198 358.882C470.408 332.17 486.513 295.919 486.513 250.128C486.513 199.249 471.679 162.361 442.012 139.466C412.345 116.146 367.209 104.486 306.603 104.486H126.059V398.949Z" fill="#F18A11"/>
<path fill-rule="evenodd" clip-rule="evenodd" d="M0 934V0H306.603C407.497 0 484.011 20.8526 535.458 63.2348C587.46 105.725 613.207 168.475 613.207 250.764C613.207 294.825 600.666 334.033 575.56 368.244L575.553 368.254L575.545 368.264C552.431 399.362 521.634 423.957 483.27 442.087C529.237 456.986 565.983 483.151 593.351 520.588C623.161 560.362 638 607.861 638 662.885C638 746.935 610.734 813.399 555.91 861.769C501.122 910.105 423.977 934 325.039 934H0ZM590.135 522.967C562.472 485.118 525.048 458.989 477.861 444.578C475.888 443.976 473.898 443.394 471.891 442.832C473.806 442.009 475.703 441.17 477.582 440.315C517.28 422.267 548.865 397.455 572.335 365.878C596.916 332.382 609.207 294.011 609.207 250.764C609.207 169.357 583.778 107.878 532.92 66.3269C482.486 24.7756 407.047 4 306.603 4H4V930H325.039C423.364 930 499.439 906.256 553.263 858.769C607.088 811.282 634 745.987 634 662.885C634 608.614 619.378 561.974 590.135 522.967ZM435.634 355.811L435.644 355.803C466.844 329.929 482.513 294.856 482.513 250.128C482.513 200.013 467.931 164.521 439.568 142.632L439.554 142.621L439.54 142.61C410.893 120.092 366.818 108.486 306.603 108.486H130.059V394.949H310.418C363.152 394.949 404.745 381.769 435.624 355.82L435.634 355.811ZM310.418 398.949C363.818 398.949 406.412 385.593 438.198 358.882C470.408 332.17 486.513 295.919 486.513 250.128C486.513 199.249 471.679 162.361 442.012 139.466C412.345 116.146 367.209 104.486 306.603 104.486H126.059V398.949H310.418ZM140.68 830.15V496.891H329.489C450.7 496.891 511.306 552.646 511.306 664.157C511.306 715.884 494.777 756.587 461.719 786.266C429.086 815.522 384.373 830.15 327.582 830.15H140.68ZM144.68 500.891V826.15H327.582C383.686 826.15 427.343 811.711 459.047 783.29C491.118 754.496 507.306 714.953 507.306 664.157C507.306 609.108 492.362 568.531 463.143 541.652C433.862 514.714 389.557 500.891 329.489 500.891H144.68Z" fill="#0A0000"/>
<path d="M143.539 425.106V669H59V46H295.444C365.599 46 420.491 63.4006 460.118 98.2019C500.039 133.003 520 179.072 520 236.409C520 296.883 500.48 343.522 461.439 376.327C422.692 408.846 367.067 425.106 294.564 425.106H143.539ZM143.539 357.928H295.444C340.649 357.928 375.286 347.659 399.356 327.12C423.426 306.296 435.461 276.345 435.461 237.264C435.461 200.181 423.426 170.514 399.356 148.264C375.286 126.014 342.263 114.462 300.287 113.606H143.539V357.928Z" fill="#010002"/>
<path fill-rule="evenodd" clip-rule="evenodd" d="M149.539 675H53V40H295.444C366.563 40 423.029 57.6488 464.069 93.6858C505.409 129.728 526 177.503 526 236.409C526 298.291 505.953 346.761 465.299 380.921L465.297 380.923C425.085 414.672 367.878 431.106 294.564 431.106H149.539V675ZM143.539 425.106H294.564C367.067 425.106 422.692 408.846 461.439 376.327C500.48 343.522 520 296.883 520 236.409C520 179.072 500.039 133.003 460.118 98.2019C420.491 63.4006 365.599 46 295.444 46H59V669H143.539V425.106ZM149.539 351.928H295.444C339.812 351.928 372.845 341.845 395.444 322.571C417.893 303.142 429.461 275.027 429.461 237.264C429.461 201.612 417.957 173.63 395.283 152.67C372.578 131.682 341.129 120.45 300.226 119.606H149.539V351.928ZM143.539 357.928V113.606H300.287C342.263 114.462 375.286 126.014 399.356 148.264C423.426 170.514 435.461 200.181 435.461 237.264C435.461 276.345 423.426 306.296 399.356 327.12C375.286 347.659 340.649 357.928 295.444 357.928H143.539Z" fill="white"/>
</svg>
