<svg width="638" height="934" viewBox="0 0 638 934" fill="none" xmlns="http://www.w3.org/2000/svg">
<g filter="url(#filter0_i_1044_4)">
<path d="M4 930V4H306.603C407.047 4 482.486 24.7756 532.92 66.3269C583.778 107.878 609.207 169.357 609.207 250.764C609.207 294.011 596.916 332.382 572.335 365.878C547.754 398.949 514.272 424.601 471.891 442.832C521.901 456.824 561.316 483.536 590.135 522.967C619.378 561.974 634 608.614 634 662.885C634 745.987 607.088 811.282 553.263 858.769C499.439 906.256 423.364 930 325.039 930H4ZM140.68 496.891V830.15H327.582C384.373 830.15 429.086 815.522 461.719 786.266C494.777 756.587 511.306 715.884 511.306 664.157C511.306 552.647 450.7 496.891 329.489 496.891H140.68ZM126.059 398.949H310.418C363.818 398.949 406.412 385.593 438.198 358.882C470.408 332.17 486.513 295.919 486.513 250.128C486.513 199.249 471.679 162.361 442.012 139.466C412.345 116.146 367.209 104.486 306.603 104.486H126.059V398.949Z" fill="#F18A11"/>
</g>
<path d="M2 930V932H4H325.039C423.671 932 500.281 908.181 554.587 860.269C608.911 812.341 636 746.461 636 662.885C636 608.237 621.27 561.168 591.743 521.778C563.669 483.369 525.633 456.927 477.724 442.447C518.016 424.249 550.11 399.131 573.94 367.071L573.947 367.061C598.791 333.208 611.207 294.418 611.207 250.764C611.207 168.916 585.619 106.802 534.189 64.7809C483.249 22.8141 407.272 2 306.603 2H4H2V4V930ZM436.921 357.342L436.911 357.351C405.578 383.681 363.485 396.949 310.418 396.949H128.059V106.486H306.603C367.013 106.486 411.619 118.119 440.776 141.038L440.783 141.044L440.79 141.049C469.805 163.441 484.513 199.631 484.513 250.128C484.513 295.387 468.626 331.05 436.921 357.342ZM327.582 828.15H142.68V498.891H329.489C389.826 498.891 434.706 512.772 464.498 540.18C494.258 567.558 509.306 608.755 509.306 664.157C509.306 715.418 492.948 755.542 460.383 784.778C428.215 813.616 384.03 828.15 327.582 828.15Z" stroke="#0A0000" stroke-width="4"/>
<path d="M143.539 694H145.539V692V450.106H294.564C367.338 450.106 423.49 433.788 462.725 400.859L462.726 400.858C502.304 367.602 522 320.352 522 259.409C522 201.55 501.83 154.914 461.438 119.699C421.339 84.4841 365.922 67 295.444 67H59H57V69V692V694H59H143.539ZM295.444 378.928H145.539V138.606H300.267C341.885 139.458 374.384 150.904 397.999 172.733C421.603 194.553 433.461 223.658 433.461 260.264C433.461 298.905 421.582 328.245 398.052 348.604C374.472 368.721 340.37 378.928 295.444 378.928Z" fill="#F8C616" stroke="black" stroke-width="4"/>
<defs>
<filter id="filter0_i_1044_4" x="0" y="0" width="638" height="938" filterUnits="userSpaceOnUse" color-interpolation-filters="sRGB">
<feFlood flood-opacity="0" result="BackgroundImageFix"/>
<feBlend mode="normal" in="SourceGraphic" in2="BackgroundImageFix" result="shape"/>
<feColorMatrix in="SourceAlpha" type="matrix" values="0 0 0 0 0 0 0 0 0 0 0 0 0 0 0 0 0 0 127 0" result="hardAlpha"/>
<feOffset dy="4"/>
<feGaussianBlur stdDeviation="2"/>
<feComposite in2="hardAlpha" operator="arithmetic" k2="-1" k3="1"/>
<feColorMatrix type="matrix" values="0 0 0 0 0 0 0 0 0 0 0 0 0 0 0 0 0 0 0.25 0"/>
<feBlend mode="normal" in2="shape" result="effect1_innerShadow_1044_4"/>
</filter>
</defs>
</svg>
